# xmcd
#
# Track frame offsets: 
#        150
#        24669
#        51612
#        77134
#        101736
#        123023
#        142192
#        164259
#        166069
#        193068
#        210426
#        240350
#        265259
#        295769
#
# Disc length: 4641 seconds
#
# Revision: 1
# Processed by: cddbd v1.5.2PL0 Copyright (c) Steve Scherf et al.
# Submitted via: ExactAudioCopy v0.99pb4
#
DISCID=c4121f0e
DTITLE=Craig Erickson - Rare Tracks 
DYEAR=2007
DGENRE=Blues\Rock
TTITLE0=Jammin' July
TTITLE1=Rewind
TTITLE2=Only Drifting
TTITLE3=Away
TTITLE4=Stones In My Pathway
TTITLE5=River Blues
TTITLE6=Tomorrow
TTITLE7=Guitar/ Bass Interplay
TTITLE8=Overload
TTITLE9=Jam For J
TTITLE10=Down At The Bottom
TTITLE11=Little Wing
TTITLE12=Elliptical Galaxy
TTITLE13=Below Zero Blues
EXTD=
EXTT0=
EXTT1=
EXTT2=
EXTT3=
EXTT4=
EXTT5=
EXTT6=
EXTT7=
EXTT8=
EXTT9=
EXTT10=
EXTT11=
EXTT12=
EXTT13=
PLAYORDER=
